<svg width="894" height="282" viewBox="0 0 894 282" fill="none" xmlns="http://www.w3.org/2000/svg">
<path d="M80.3802 250.148L48.503 192.289H39.5512V250.148H2.21558V96.876H64.8783C76.9596 96.876 87.2214 98.9865 95.6638 103.208C104.252 107.429 110.656 113.251 114.877 120.675C119.099 127.953 121.209 136.104 121.209 145.128C121.209 155.317 118.298 164.415 112.476 172.421C106.799 180.426 98.3566 186.103 87.1486 189.451L122.519 250.148H80.3802ZM39.5512 165.87H62.6949C69.5361 165.87 74.6306 164.196 77.9785 160.849C81.4719 157.501 83.2186 152.77 83.2186 146.657C83.2186 140.834 81.4719 136.249 77.9785 132.902C74.6306 129.554 69.5361 127.88 62.6949 127.88H39.5512V165.87ZM200.104 251.895C188.168 251.895 177.397 249.348 167.79 244.253C158.329 239.159 150.832 231.881 145.301 222.42C139.916 212.958 137.223 201.896 137.223 189.232C137.223 176.714 139.988 165.725 145.52 156.264C151.051 146.657 158.62 139.306 168.227 134.212C177.833 129.117 188.605 126.57 200.54 126.57C212.476 126.57 223.247 129.117 232.854 134.212C242.461 139.306 250.03 146.657 255.561 156.264C261.093 165.725 263.858 176.714 263.858 189.232C263.858 201.75 261.02 212.813 255.343 222.42C249.812 231.881 242.17 239.159 232.418 244.253C222.811 249.348 212.04 251.895 200.104 251.895ZM200.104 219.581C207.236 219.581 213.277 216.961 218.226 211.721C223.32 206.481 225.868 198.985 225.868 189.232C225.868 179.48 223.393 171.984 218.444 166.744C213.641 161.504 207.673 158.884 200.54 158.884C193.263 158.884 187.222 161.504 182.418 166.744C177.615 171.838 175.213 179.335 175.213 189.232C175.213 198.985 177.542 206.481 182.2 211.721C187.004 216.961 192.971 219.581 200.104 219.581ZM439.122 127.006C454.26 127.006 466.268 131.592 475.147 140.762C484.172 149.932 488.684 162.668 488.684 178.971V250.148H451.567V183.992C451.567 176.132 449.456 170.092 445.235 165.87C441.159 161.504 435.483 159.32 428.205 159.32C420.927 159.32 415.177 161.504 410.956 165.87C406.88 170.092 404.843 176.132 404.843 183.992V250.148H367.725V183.992C367.725 176.132 365.615 170.092 361.394 165.87C357.318 161.504 351.641 159.32 344.363 159.32C337.085 159.32 331.336 161.504 327.115 165.87C323.039 170.092 321.001 176.132 321.001 183.992V250.148H283.666V128.316H321.001V143.6C324.786 138.506 329.735 134.503 335.848 131.592C341.962 128.535 348.876 127.006 356.59 127.006C365.76 127.006 373.912 128.971 381.044 132.902C388.322 136.832 393.999 142.436 398.074 149.713C402.295 143.018 408.045 137.559 415.323 133.338C422.601 129.117 430.534 127.006 439.122 127.006Z" fill="black"/>
<mask id="mask0_16663_21" style="mask-type:luminance" maskUnits="userSpaceOnUse" x="0" y="95" width="491" height="159">
<path d="M490.854 95.1294H0.323486V253.788H490.854V95.1294Z" fill="white"/>
<path d="M80.3804 250.148L48.5032 192.289H39.5514V250.148H2.21582V96.876H64.8785C76.9598 96.876 87.2216 98.9865 95.664 103.208C104.252 107.429 110.656 113.251 114.878 120.675C119.099 127.953 121.209 136.104 121.209 145.128C121.209 155.317 118.298 164.415 112.476 172.421C106.799 180.426 98.3568 186.103 87.1489 189.451L122.519 250.148H80.3804ZM39.5514 165.87H62.6951C69.5364 165.87 74.6309 164.196 77.9787 160.849C81.4721 157.501 83.2188 152.77 83.2188 146.657C83.2188 140.834 81.4721 136.249 77.9787 132.902C74.6309 129.554 69.5364 127.88 62.6951 127.88H39.5514V165.87ZM200.104 251.895C188.168 251.895 177.397 249.348 167.79 244.253C158.329 239.159 150.833 231.881 145.301 222.42C139.916 212.958 137.223 201.896 137.223 189.232C137.223 176.714 139.989 165.725 145.52 156.264C151.051 146.657 158.62 139.306 168.227 134.212C177.834 129.117 188.605 126.57 200.541 126.57C212.476 126.57 223.248 129.117 232.855 134.212C242.461 139.306 250.03 146.657 255.562 156.264C261.093 165.725 263.858 176.714 263.858 189.232C263.858 201.75 261.02 212.813 255.343 222.42C249.812 231.881 242.17 239.159 232.418 244.253C222.811 249.348 212.04 251.895 200.104 251.895ZM200.104 219.581C207.236 219.581 213.277 216.961 218.226 211.721C223.321 206.481 225.868 198.985 225.868 189.232C225.868 179.48 223.393 171.984 218.444 166.744C213.641 161.504 207.673 158.884 200.541 158.884C193.263 158.884 187.222 161.504 182.419 166.744C177.615 171.838 175.214 179.335 175.214 189.232C175.214 198.985 177.543 206.481 182.2 211.721C187.004 216.961 192.972 219.581 200.104 219.581ZM439.122 127.006C454.26 127.006 466.268 131.592 475.147 140.762C484.172 149.932 488.684 162.668 488.684 178.971V250.148H451.567V183.992C451.567 176.132 449.456 170.092 445.235 165.87C441.16 161.504 435.483 159.32 428.205 159.32C420.927 159.32 415.178 161.504 410.956 165.87C406.881 170.092 404.843 176.132 404.843 183.992V250.148H367.726V183.992C367.726 176.132 365.615 170.092 361.394 165.87C357.318 161.504 351.641 159.32 344.364 159.32C337.086 159.32 331.336 161.504 327.115 165.87C323.039 170.092 321.002 176.132 321.002 183.992V250.148H283.666V128.316H321.002V143.6C324.786 138.506 329.735 134.503 335.848 131.592C341.962 128.535 348.876 127.006 356.59 127.006C365.761 127.006 373.912 128.971 381.044 132.902C388.322 136.832 393.999 142.436 398.074 149.713C402.296 143.018 408.045 137.559 415.323 133.338C422.601 129.117 430.534 127.006 439.122 127.006Z" fill="black"/>
</mask>
<g mask="url(#mask0_16663_21)">
<path d="M80.3804 250.148L79.1054 250.851L79.5202 251.604H80.3804V250.148ZM48.5033 192.289L49.7783 191.587L49.3635 190.834H48.5033V192.289ZM39.5514 192.289V190.834H38.0959V192.289H39.5514ZM39.5514 250.148V251.604H41.007V250.148H39.5514ZM2.21583 250.148H0.760254V251.604H2.21583V250.148ZM2.21583 96.876V95.4204H0.760254V96.876H2.21583ZM95.664 103.208L95.0134 104.51L95.0221 104.514L95.664 103.208ZM114.878 120.675L113.612 121.394L113.616 121.4L113.619 121.405L114.878 120.675ZM112.476 172.421L111.299 171.565L111.293 171.571L111.289 171.578L112.476 172.421ZM87.1489 189.451L86.7326 188.056L84.9597 188.585L85.8913 190.184L87.1489 189.451ZM122.519 250.148V251.604H125.052L123.777 249.416L122.519 250.148ZM39.5514 165.87H38.0959V167.326H39.5514V165.87ZM77.9787 160.849L76.9715 159.798L76.9606 159.809L76.9496 159.82L77.9787 160.849ZM77.9787 132.902L76.9496 133.931L76.9606 133.942L76.9715 133.952L77.9787 132.902ZM39.5514 127.88V126.424H38.0959V127.88H39.5514ZM81.6555 249.446L49.7783 191.587L47.2282 192.992L79.1054 250.851L81.6555 249.446ZM48.5033 190.834H39.5514V193.745H48.5033V190.834ZM38.0959 192.289V250.148H41.007V192.289H38.0959ZM39.5514 248.693H2.21583V251.604H39.5514V248.693ZM3.67141 250.148V96.876H0.760254V250.148H3.67141ZM2.21583 98.3316H64.8785V95.4204H2.21583V98.3316ZM64.8785 98.3316C76.7953 98.3316 86.8214 100.414 95.0134 104.51L96.3147 101.906C87.622 97.5593 77.1243 95.4204 64.8785 95.4204V98.3316ZM95.0221 104.514C103.381 108.623 109.552 114.254 113.612 121.394L116.143 119.955C111.761 112.248 105.123 106.235 96.3059 101.901L95.0221 104.514ZM113.619 121.405C117.701 128.445 119.754 136.341 119.754 145.128H122.665C122.665 135.867 120.496 127.461 116.137 119.945L113.619 121.405ZM119.754 145.128C119.754 155.02 116.934 163.815 111.299 171.565L113.653 173.276C119.662 165.015 122.665 155.615 122.665 145.128H119.754ZM111.289 171.578C105.834 179.271 97.6909 184.783 86.7326 188.056L87.5652 190.845C99.0228 187.423 107.764 181.581 113.663 173.263L111.289 171.578ZM85.8913 190.184L121.262 250.881L123.777 249.416L88.4065 188.718L85.8913 190.184ZM122.519 248.693H80.3804V251.604H122.519V248.693ZM39.5514 167.326H62.6952V164.415H39.5514V167.326ZM62.6952 167.326C69.7503 167.326 75.2859 165.6 79.0078 161.878L76.9496 159.82C73.9759 162.793 69.3224 164.415 62.6952 164.415V167.326ZM78.986 161.9C82.8367 158.209 84.6744 153.056 84.6744 146.657H81.7632C81.7632 152.484 80.1075 156.793 76.9715 159.798L78.986 161.9ZM84.6744 146.657C84.6744 140.524 82.8229 135.528 78.986 131.851L76.9715 133.952C80.1213 136.971 81.7632 141.144 81.7632 146.657H84.6744ZM79.0078 131.872C75.2859 128.15 69.7503 126.424 62.6952 126.424V129.335C69.3224 129.335 73.9759 130.958 76.9496 133.931L79.0078 131.872ZM62.6952 126.424H39.5514V129.335H62.6952V126.424ZM38.0959 127.88V165.87H41.007V127.88H38.0959ZM167.79 244.253L167.1 245.535L167.108 245.539L167.79 244.253ZM145.301 222.42L144.037 223.139L144.041 223.147L144.045 223.154L145.301 222.42ZM145.52 156.264L146.777 156.998L146.781 156.99L145.52 156.264ZM255.562 156.264L254.3 156.99L254.305 156.998L255.562 156.264ZM255.343 222.42L254.09 221.68L254.087 221.685L255.343 222.42ZM232.418 244.253L231.744 242.963L231.736 242.967L232.418 244.253ZM218.226 211.721L217.182 210.707L217.175 210.714L217.168 210.722L218.226 211.721ZM218.444 166.744L217.372 167.727L217.379 167.735L217.386 167.743L218.444 166.744ZM182.419 166.744L183.478 167.742L183.485 167.735L183.491 167.727L182.419 166.744ZM182.2 211.721L181.112 212.688L181.12 212.696L181.128 212.704L182.2 211.721ZM200.104 250.44C188.382 250.44 177.849 247.94 168.472 242.967L167.108 245.539C176.945 250.756 187.954 253.351 200.104 253.351V250.44ZM168.48 242.972C159.26 238.007 151.957 230.92 146.558 221.685L144.045 223.154C149.708 232.842 157.399 240.311 167.1 245.535L168.48 242.972ZM146.566 221.7C141.325 212.491 138.679 201.685 138.679 189.232H135.767C135.767 202.107 138.507 213.426 144.037 223.139L146.566 221.7ZM138.679 189.232C138.679 176.935 141.393 166.207 146.777 156.998L144.264 155.529C138.584 165.243 135.767 176.494 135.767 189.232H138.679ZM146.781 156.99C152.178 147.615 159.549 140.461 168.909 135.498L167.545 132.926C157.691 138.151 149.924 145.698 144.259 155.537L146.781 156.99ZM168.909 135.498C178.286 130.525 188.819 128.025 200.541 128.025V125.114C188.391 125.114 177.382 127.709 167.545 132.926L168.909 135.498ZM200.541 128.025C212.262 128.025 222.796 130.525 232.173 135.498L233.536 132.926C223.7 127.709 212.69 125.114 200.541 125.114V128.025ZM232.173 135.498C241.533 140.461 248.903 147.615 254.3 156.99L256.823 155.537C251.158 145.698 243.39 138.151 233.536 132.926L232.173 135.498ZM254.305 156.998C259.688 166.207 262.403 176.935 262.403 189.232H265.314C265.314 176.494 262.497 165.243 256.818 155.529L254.305 156.998ZM262.403 189.232C262.403 201.523 259.619 212.323 254.09 221.68L256.597 223.16C262.422 213.303 265.314 201.978 265.314 189.232H262.403ZM254.087 221.685C248.694 230.909 241.255 237.995 231.744 242.963L233.092 245.544C243.086 240.323 250.93 232.853 256.6 223.154L254.087 221.685ZM231.736 242.967C222.359 247.94 211.826 250.44 200.104 250.44V253.351C212.254 253.351 223.263 250.756 233.1 245.539L231.736 242.967ZM200.104 221.037C207.642 221.037 214.064 218.248 219.284 212.72L217.168 210.722C212.49 215.675 206.831 218.126 200.104 218.126V221.037ZM219.27 212.736C224.707 207.143 227.323 199.234 227.323 189.232H224.412C224.412 198.736 221.934 205.819 217.182 210.707L219.27 212.736ZM227.323 189.232C227.323 179.242 224.786 171.338 219.503 165.744L217.386 167.743C222.001 172.629 224.412 179.718 224.412 189.232H227.323ZM219.517 165.761C214.437 160.218 208.08 157.428 200.541 157.428V160.339C207.267 160.339 212.845 162.789 217.372 167.727L219.517 165.761ZM200.541 157.428C192.866 157.428 186.432 160.211 181.346 165.761L183.491 167.727C188.012 162.796 193.66 160.339 200.541 160.339V157.428ZM181.36 165.745C176.213 171.204 173.758 179.117 173.758 189.232H176.669C176.669 179.552 179.018 172.472 183.478 167.742L181.36 165.745ZM173.758 189.232C173.758 199.202 176.139 207.093 181.112 212.688L183.288 210.754C178.946 205.869 176.669 198.768 176.669 189.232H173.758ZM181.128 212.704C186.208 218.247 192.566 221.037 200.104 221.037V218.126C193.379 218.126 187.8 215.676 183.273 210.738L181.128 212.704ZM475.147 140.762L474.102 141.774L474.106 141.778L474.11 141.783L475.147 140.762ZM488.684 250.148V251.604H490.14V250.148H488.684ZM451.567 250.148H450.111V251.604H451.567V250.148ZM445.235 165.87L444.171 166.864L444.188 166.882L444.206 166.9L445.235 165.87ZM410.956 165.87L409.91 164.859L409.909 164.86L410.956 165.87ZM404.843 250.148V251.604H406.298V250.148H404.843ZM367.726 250.148H366.27V251.604H367.726V250.148ZM361.394 165.87L360.33 166.864L360.347 166.882L360.365 166.9L361.394 165.87ZM327.115 165.87L326.068 164.859L326.068 164.86L327.115 165.87ZM321.002 250.148V251.604H322.457V250.148H321.002ZM283.666 250.148H282.21V251.604H283.666V250.148ZM283.666 128.316V126.861H282.21V128.316H283.666ZM321.002 128.316H322.457V126.861H321.002V128.316ZM321.002 143.6H319.546V148L322.17 144.468L321.002 143.6ZM335.848 131.592L336.474 132.906L336.487 132.899L336.499 132.894L335.848 131.592ZM381.044 132.902L380.342 134.177L380.347 134.18L380.352 134.182L381.044 132.902ZM398.074 149.713L396.804 150.425L398 152.561L399.306 150.49L398.074 149.713ZM439.122 128.462C453.945 128.462 465.547 132.939 474.102 141.774L476.193 139.749C466.989 130.244 454.575 125.551 439.122 125.551V128.462ZM474.11 141.783C482.799 150.613 487.229 162.943 487.229 178.971H490.14C490.14 162.393 485.544 149.251 476.184 139.741L474.11 141.783ZM487.229 178.971V250.148H490.14V178.971H487.229ZM488.684 248.693H451.567V251.604H488.684V248.693ZM453.023 250.148V183.992H450.111V250.148H453.023ZM453.023 183.992C453.023 175.873 450.837 169.413 446.264 164.841L444.206 166.9C448.076 170.77 450.111 176.391 450.111 183.992H453.023ZM446.299 164.877C441.89 160.153 435.791 157.865 428.205 157.865V160.776C435.174 160.776 440.43 162.854 444.171 166.864L446.299 164.877ZM428.205 157.865C420.616 157.865 414.458 160.153 409.91 164.859L412.003 166.882C415.896 162.854 421.237 160.776 428.205 160.776V157.865ZM409.909 164.86C405.493 169.434 403.387 175.886 403.387 183.992H406.298C406.298 176.378 408.269 170.75 412.004 166.881L409.909 164.86ZM403.387 183.992V250.148H406.298V183.992H403.387ZM404.843 248.693H367.726V251.604H404.843V248.693ZM369.181 250.148V183.992H366.27V250.148H369.181ZM369.181 183.992C369.181 175.873 366.996 169.413 362.423 164.841L360.365 166.9C364.234 170.77 366.27 176.391 366.27 183.992H369.181ZM362.458 164.877C358.048 160.153 351.95 157.865 344.364 157.865V160.776C351.333 160.776 356.588 162.854 360.33 166.864L362.458 164.877ZM344.364 157.865C336.775 157.865 330.617 160.153 326.068 164.859L328.161 166.882C332.054 162.854 337.396 160.776 344.364 160.776V157.865ZM326.068 164.86C321.651 169.434 319.546 175.886 319.546 183.992H322.457C322.457 176.378 324.427 170.75 328.162 166.881L326.068 164.86ZM319.546 183.992V250.148H322.457V183.992H319.546ZM321.002 248.693H283.666V251.604H321.002V248.693ZM285.121 250.148V128.316H282.21V250.148H285.121ZM283.666 129.772H321.002V126.861H283.666V129.772ZM319.546 128.316V143.6H322.457V128.316H319.546ZM322.17 144.468C325.803 139.577 330.56 135.722 336.474 132.906L335.223 130.277C328.909 133.284 323.769 137.434 319.833 142.732L322.17 144.468ZM336.499 132.894C342.386 129.95 349.072 128.462 356.59 128.462V125.551C348.679 125.551 341.538 127.119 335.197 130.29L336.499 132.894ZM356.59 128.462C365.546 128.462 373.45 130.379 380.342 134.177L381.746 131.626C374.373 127.564 365.975 125.551 356.59 125.551V128.462ZM380.352 134.182C387.385 137.98 392.862 143.385 396.804 150.425L399.344 149.002C395.135 141.486 389.259 135.683 381.736 131.621L380.352 134.182ZM399.306 150.49C403.393 144.005 408.966 138.708 416.053 134.597L414.592 132.079C407.125 136.411 401.197 142.03 396.843 148.937L399.306 150.49ZM416.053 134.597C423.105 130.508 430.785 128.462 439.122 128.462V125.551C430.283 125.551 422.097 127.726 414.592 132.079L416.053 134.597Z" fill="black"/>
</g>
<path d="M871.488 0.516602H544.71C532.652 0.516602 522.876 10.2919 522.876 22.3503V259.61C522.876 271.668 532.652 281.443 544.71 281.443H871.488C883.546 281.443 893.321 271.668 893.321 259.61V22.3503C893.321 10.2919 883.546 0.516602 871.488 0.516602Z" fill="#0077FF"/>
<path d="M540.635 189.233C540.635 176.569 543.182 165.507 548.276 156.045C553.516 146.584 560.721 139.306 569.892 134.212C579.207 129.117 589.833 126.57 601.769 126.57C617.052 126.57 629.789 130.573 639.978 138.578C650.312 146.584 657.081 157.865 660.283 172.421H620.546C617.198 163.105 610.721 158.447 601.114 158.447C594.273 158.447 588.814 161.14 584.739 166.526C580.663 171.766 578.625 179.335 578.625 189.233C578.625 199.131 580.663 206.772 584.739 212.158C588.814 217.398 594.273 220.018 601.114 220.018C610.721 220.018 617.198 215.36 620.546 206.045H660.283C657.081 220.309 650.312 231.517 639.978 239.668C629.643 247.82 616.907 251.895 601.769 251.895C589.833 251.895 579.207 249.348 569.892 244.253C560.721 239.159 553.516 231.881 548.276 222.42C543.182 212.959 540.635 201.896 540.635 189.233ZM755.143 127.007C769.117 127.007 780.325 131.664 788.767 140.98C797.209 150.15 801.431 162.814 801.431 178.971V250.149H764.313V183.992C764.313 175.841 762.203 169.509 757.982 164.997C753.76 160.485 748.084 158.229 740.951 158.229C733.819 158.229 728.142 160.485 723.921 164.997C719.7 169.509 717.589 175.841 717.589 183.992V250.149H680.254V88.5793H717.589V144.692C721.374 139.306 726.541 135.012 733.091 131.81C739.641 128.608 746.992 127.007 755.143 127.007ZM846.153 115.653C839.603 115.653 834.218 113.761 829.996 109.976C825.921 106.046 823.883 101.243 823.883 95.566C823.883 89.7437 825.921 84.9403 829.996 81.1558C834.218 77.2258 839.603 75.2607 846.153 75.2607C852.558 75.2607 857.798 77.2258 861.874 81.1558C866.095 84.9403 868.205 89.7437 868.205 95.566C868.205 101.243 866.095 106.046 861.874 109.976C857.798 113.761 852.558 115.653 846.153 115.653ZM864.712 128.317V250.149H827.376V128.317H864.712Z" fill="white"/>
<path d="M878.766 59.4678H805.987V119.147H878.766V59.4678Z" fill="#0077FF"/>
<path d="M802.5 65.8174C801.685 65.6536 801.649 64.2184 802.45 64.0147C809.189 62.3036 821.874 58.3532 828.657 51.5695C835.753 44.4713 839.749 30.9126 841.321 24.468C841.51 23.6937 842.784 23.6849 842.987 24.4549C844.727 31.0385 849.101 45.0907 856.24 52.2317C863.256 59.2491 876.233 62.875 882.572 64.2963C883.351 64.4717 883.394 65.7657 882.623 65.9855C876.291 67.7919 863.227 72.1681 856.24 79.1549C849.363 86.0347 845.011 98.8037 843.155 105.241C842.929 106.021 841.59 105.963 841.43 105.166C840.105 98.3991 836.67 84.7385 829.538 77.6098C822.587 70.6587 809.422 67.214 802.5 65.8174Z" fill="white"/>
</svg>
